PathFileType	4	(X/Y/Z)	Patient4_TMGait_0pt4_01_left_15.trc.trc
DataRate	CameraRate	NumFrames	NumMarkers	Units	OrigDataRate	OrigDataStartFrame	OrigNumFrames
76.502732240437	76.502732240437	4	33	mm	76.502732240437	53	       141
Frame#	Time	Sacral			L.Shoulder			Chest			R.Shoulder			Neck			R.ASIS			L.ASIS			R.Thigh.Superior			R.Thigh.Lateral			R.Thigh.Inferior			R.Patella			L.Thigh.Superior			L.Thigh.Lateral			L.Thigh.Inferior			L.Patella			L.Shank.Superior			L.Shank.Lateral			L.Shank.Inferior			R.Shank.Superior			R.Shank.Lateral			R.Shank.Inferior			R.Heel			R.Midfoot.Superior			R.Midfoot.Lateral			R.Toe			L.Heel			L.Midfoot.Lateral			L.Midfoot.Superior			L.Toe			L.Elbow			L.Wrist			R.Elbow			R.Wrist			
		X1	Y1	Z1	X2	Y2	Z2	X3	Y3	Z3	X4	Y4	Z4	X5	Y5	Z5	X6	Y6	Z6	X7	Y7	Z7	X8	Y8	Z8	X9	Y9	Z9	X10	Y10	Z10	X11	Y11	Z11	X12	Y12	Z12	X13	Y13	Z13	X14	Y14	Z14	X15	Y15	Z15	X16	Y16	Z16	X17	Y17	Z17	X18	Y18	Z18	X19	Y19	Z19	X20	Y20	Z20	X21	Y21	Z21	X22	Y22	Z22	X23	Y23	Z23	X24	Y24	Z24	X25	Y25	Z25	X26	Y26	Z26	X27	Y27	Z27	X28	Y28	Z28	X29	Y29	Z29	X30	Y30	Z30	X31	Y31	Z31	X32	Y32	Z32	X33	Y33	Z33	

53	19.319714285714	787.555526210752	1018.616929573619	420.104492191773	971.170041161958	1432.818352605145	212.886938941525	1084.809534240805	1368.304570700081	367.810335462049	1016.925389935160	1450.342536523751	545.638310500244	968.986997891002	1500.331229835738	379.318411536071	1020.876622559969	949.566418998006	523.948463857816	991.304272086252	963.241761523725	251.783382409337	1086.956454679670	766.525538654439	495.370531210696	1038.373564964305	651.322228971272	575.695076321922	1119.385926085070	602.204224034163	492.658339181384	1130.217047709081	492.071561437423	517.963788790853	1031.853787490700	747.327498998766	280.347914467291	933.586946155170	635.755764397734	229.515628420057	1016.457642003584	554.955734872949	289.947651647039	1012.921490473939	487.532677478532	301.344694893203	984.902574231860	417.264449950180	295.088830879807	891.030786449053	304.142958173694	251.349376589280	942.841495144994	192.274000929029	321.083710993974	1054.884292179920	420.457488288711	531.405076277670	938.346606943411	380.690797140732	599.863254167066	923.374256541770	270.065388657597	554.634193435523	723.594771523973	205.689599478458	538.630850770381	894.301873466181	148.873381517735	575.414259352202	785.999396719503	149.007990085581	611.565617406263	959.360192211670	36.438572582261	600.757213630568	815.747677742077	38.791888498306	374.795859557546	882.183923024116	35.070672747150	287.934486039227	968.112791611453	95.157898007275	307.215329101813	1093.617624202420	41.591017513067	267.703010143776	918.026849916241	1108.872871474033	51.292496667584	1087.550759725803	930.231358572250	-41.520083771739	948.113743531413	1116.100456598634	681.447079392221	991.536131685693	858.479094799074	699.566270061641	
54	19.332785714286	785.787459086971	1019.014871479081	418.084997186181	972.065890729844	1432.679064527076	211.817391140725	1084.311172717663	1368.115013551534	367.709434069843	1015.236279794099	1450.565830105606	544.875226308836	968.861539517406	1500.370517969550	378.266603175576	1018.386488866013	949.990037983217	523.639873003419	990.590150370105	963.170981893290	251.272442918502	1086.699133946290	769.203839719591	493.747861607968	1040.871138185909	653.357148366371	574.187150428442	1122.085541574009	605.574279920733	490.389200519593	1134.846858678491	495.087977787584	515.661277722040	1029.794632513491	746.628016609536	279.726549359932	930.581561840867	635.753694598670	228.962553415856	1012.609795880919	554.382188676697	289.719034980903	1008.466579994758	487.165664082468	301.329307919423	980.470100812637	417.156035067781	294.931008908600	886.490168341504	304.198729800522	251.046534144735	937.899903486313	192.265258747263	320.983944235022	1059.412973868100	422.915940238522	529.285657744383	942.526212477597	383.276175303166	597.292525584941	927.747472038148	272.580771082129	552.253950709263	728.106820815115	208.338522602671	535.523833045353	898.615032647505	151.412879699576	573.071261893560	790.156307959352	151.754535051234	608.842247436184	963.365029524221	38.358232347975	598.921836706429	810.457719600414	38.852371088083	374.711529358987	876.947035976997	35.071339297214	287.880744387669	962.891570373442	95.137401600084	307.152394435174	1088.395956779512	41.427370582673	267.683376840838	918.727764583625	1111.846014871904	45.520974639800	1093.013370646940	940.297864566933	-50.953567534477	939.416576112108	1118.711427777777	681.783567240156	975.949162241760	860.387752625729	703.362403777856	
55	19.345857142857	784.077808922689	1019.453928422610	416.205377758731	973.019552955284	1432.555729159511	210.896357512296	1083.856220093763	1367.922143831817	367.737847460270	1013.610761470466	1450.825960039326	544.220027188781	968.764672507741	1500.417613608700	377.356055309019	1015.864836935853	950.398561946271	523.456080758417	989.925092586353	963.115969953628	250.911750485098	1086.177320837156	771.774050312998	492.426181529663	1042.897713801425	655.373230888214	572.965896475397	1124.333113931476	608.867698959930	488.500373469169	1138.998015225496	498.168225791868	513.703532148010	1027.664174560589	745.923870261905	279.322800140779	927.545545910299	635.778156766796	228.493238838337	1008.673215592429	553.832006288386	289.597950658304	1003.892463590397	486.818625400423	301.382389688078	975.952420434745	417.067957756077	294.818623714021	881.881275846561	304.266523830897	250.770809736041	932.913100368797	192.268833641903	320.885699933489	1063.707435386465	425.305435881985	527.407555583877	946.637961080054	385.223176564239	594.890642890879	932.541604765300	274.418410778185	549.933678580480	733.251090182033	209.264819840915	532.431354546737	903.896146135820	153.246899460076	570.653914752165	795.305514434423	153.103254746616	606.076019546655	969.033993513428	40.240506350031	596.895412176936	805.157824375562	38.915061593890	374.627447993372	871.703026920720	35.067510456996	287.823850959679	957.656997052553	95.122077293195	307.086145711664	1083.165056245584	41.285502480687	267.660198807519	919.499152449249	1115.030681026120	39.872390800053	1098.469902667937	950.988717032302	-60.079434361504	930.924397344180	1121.504311413955	682.211191573856	961.444947259432	862.796718821306	706.757700679956	
56	19.358928571429	782.418630997701	1019.922686806722	414.457843170519	974.003726644913	1432.446054765725	210.126314466532	1083.435350781391	1367.719821472240	367.884494153879	1012.049251901424	1451.098908971506	543.674229417563	968.684816794429	1500.463340563151	376.590002304268	1013.316358743367	950.778017465508	523.382853559650	989.303986138914	963.062134102529	250.694147640183	1085.421329305225	774.207583736131	491.417611374040	1044.439490312364	657.321781375362	572.034908708583	1126.141968195338	612.031463972244	487.029262954625	1142.655267890468	501.270132186962	512.141081597402	1025.474740012596	745.217774230708	279.157074801395	924.501709206292	635.822817530629	228.098791330102	1004.663608062430	553.305572289658	289.586459201608	999.230542977690	486.490755050682	301.501241951777	971.363208476376	416.994239242103	294.750175191218	877.216795914471	304.341746513058	250.520979337756	927.888593355852	192.279842330390	320.791076769384	1067.777870641559	427.580116439473	525.806462038932	950.718526216724	386.460666091922	592.708773202883	937.796551762118	275.525974553606	547.721088528043	739.092197667029	208.461838925803	529.401150014195	910.185719082629	154.298991440020	568.229286490936	801.484372838394	153.025988055094	603.328742861456	976.364499336697	41.919457636108	594.770548871507	799.849685927480	38.978608112556	374.544707725262	866.453019166024	35.059617238773	287.764374524516	952.412360441154	95.109793502637	307.019821310059	1077.927335255872	41.163675336700	267.634216845515	920.405349920603	1118.407194492481	34.363319156338	1103.968094962497	962.266004362136	-68.844576507083	922.700705257392	1124.397054048258	682.675802888419	948.033101877433	865.527046485922	709.785553971288	
